<svg width="20" height="32" viewBox="0 0 20 32" fill="none" xmlns="http://www.w3.org/2000/svg">
<path d="M12.6271 13.9563H11.2979V7.31042H15.2854C16.386 7.31042 17.2792 6.41722 17.2792 5.31667C17.2792 4.21612 16.386 3.32292 15.2854 3.32292H11.2979V1.32917C11.2979 0.595467 10.7024 0 9.96875 0C9.23505 0 8.63958 0.595467 8.63958 1.32917V3.32292H7.31042C3.27773 3.32292 0 6.60064 0 10.6333C0 14.666 3.27773 17.9438 7.31042 17.9438H8.63958V24.5896H4.65208C3.55153 24.5896 2.65833 25.4828 2.65833 26.5833C2.65833 27.6839 3.55153 28.5771 4.65208 28.5771H8.63958V30.5708C8.63958 31.3045 9.23505 31.9 9.96875 31.9C10.7024 31.9 11.2979 31.3045 11.2979 30.5708V28.5771H12.6271C16.6598 28.5771 19.9375 25.2994 19.9375 21.2667C19.9375 17.234 16.6598 13.9563 12.6271 13.9563ZM7.31042 13.9563C5.47883 13.9563 3.9875 12.4649 3.9875 10.6333C3.9875 8.80174 5.47883 7.31042 7.31042 7.31042H8.63958V13.9563H7.31042ZM12.6271 24.5896H11.2979V17.9438H12.6271C14.4587 17.9438 15.95 19.4351 15.95 21.2667C15.95 23.0983 14.4587 24.5896 12.6271 24.5896Z" fill="white"/>
</svg>
