<svg width="54" height="46" viewBox="0 0 54 46" fill="none" xmlns="http://www.w3.org/2000/svg">
<path d="M51.9896 12.7808L52.0445 12.8083H52.0771C52.3176 12.9466 52.5193 13.1438 52.663 13.3819C52.8174 13.6376 52.8991 13.9307 52.8991 14.2294C52.8991 14.5281 52.8174 14.8212 52.663 15.0769C52.5086 15.3326 52.2872 15.5413 52.0228 15.6804L52.0205 15.6817L43.5307 20.2589L43.3942 20.3325V20.4875V31.3325C43.3943 31.7232 43.2548 32.101 43.0009 32.398C42.7993 32.6332 37.547 38.6699 26.5604 38.6699L26.5593 38.6699C24.0139 38.6809 21.4801 38.3262 19.0357 37.6166L18.7035 37.5202V37.866V43.6778C18.7035 44.1127 18.5308 44.5297 18.2233 44.8372C17.9158 45.1447 17.4988 45.3174 17.064 45.3174C16.6291 45.3174 16.2121 45.1447 15.9046 44.8372C15.5971 44.5297 15.4244 44.1127 15.4244 43.6778V36.3656V36.201L15.2756 36.1307C13.3388 35.2157 11.5891 33.9483 10.1159 32.3934C9.86455 32.0971 9.72651 31.7211 9.72655 31.3325V20.4875V20.3328L9.59051 20.2592L1.13868 15.6819L1.13869 15.6819L1.13592 15.6804C0.871542 15.5413 0.650187 15.3326 0.495765 15.0769C0.341344 14.8212 0.259725 14.5281 0.259725 14.2294C0.259725 13.9307 0.341344 13.6376 0.495765 13.3819C0.649738 13.1269 0.870255 12.9187 1.13362 12.7796L25.8219 0.435476L25.8226 0.435112C26.0514 0.319794 26.3041 0.259725 26.5604 0.259725C26.8167 0.259725 27.0694 0.319795 27.2982 0.435113L27.2989 0.435475L51.9896 12.7808ZM13.0057 30.5538V30.6678L13.0896 30.745C13.6901 31.297 14.3376 31.7955 15.0247 32.235L15.4244 32.4906V32.0162V23.5454V23.3891L15.2863 23.3159L13.387 22.3093L13.0057 22.1072V22.5388V30.5538ZM40.0235 30.7518L40.1151 30.674V30.5538V22.5388V22.1043L39.7324 22.31L27.331 28.976C27.3308 28.9761 27.3307 28.9762 27.3306 28.9762C27.0935 29.1024 26.829 29.1684 26.5604 29.1684C26.2917 29.1684 26.0272 29.1024 25.79 28.9761C25.7899 28.9761 25.7899 28.976 25.7898 28.976L19.0863 25.3679L18.7035 25.1619V25.5966V33.8775V34.0625L18.8783 34.1229C21.3472 34.9776 23.9434 35.4063 26.556 35.3908C31.468 35.5887 36.2751 33.9329 40.0235 30.7518ZM26.4374 25.5975L26.5605 25.6636L26.6835 25.5974L47.2528 14.5246L47.6936 14.2873L47.2457 14.0635L26.6765 3.78839L26.5604 3.73041L26.4443 3.78839L5.87506 14.0635L5.42691 14.2874L5.86813 14.5246L15.1936 19.5387L15.4622 19.6832L15.562 19.395C15.6879 19.0316 15.9374 18.724 16.2671 18.526L25.7634 12.8282L25.7732 12.8223L25.7825 12.8156C25.968 12.6806 26.1798 12.5861 26.4042 12.5382C26.6285 12.4902 26.8604 12.4899 27.0849 12.5372C27.3094 12.5845 27.5215 12.6784 27.7074 12.8128C27.8933 12.9472 28.0489 13.1191 28.1642 13.3175C28.2796 13.5158 28.352 13.7361 28.3768 13.9642C28.4016 14.1922 28.3783 14.423 28.3083 14.6415C28.2384 14.86 28.1233 15.0613 27.9707 15.2326L28.1646 15.4054L27.9707 15.2326C27.818 15.4038 27.6311 15.5411 27.4221 15.6356L27.4083 15.6418L27.3953 15.6497L18.8295 20.7967L18.7035 20.8724V21.0193V21.2852V21.4405L18.8403 21.514L26.4374 25.5975Z" fill="white" stroke="#232323" stroke-width="0.51945"/>
</svg>
