<svg width="96" height="31" viewBox="0 0 96 31" fill="none" xmlns="http://www.w3.org/2000/svg">
<rect width="30.7194" height="30.7194" rx="3.17787" fill="black"/>
<path d="M11.7826 20.766C12.0775 19.7852 12.4255 18.7378 12.8311 17.6701C13.6039 15.6374 14.4683 13.8352 15.4106 12.2906C15.2502 12.0771 15.153 11.8138 15.1485 11.528C13.6785 11.2127 12.091 11.0907 10.4007 11.163C10.3781 11.7573 9.96115 12.25 9.40186 12.3844C9.62106 15.895 10.6877 18.7288 11.7769 20.766C11.7792 20.766 11.7814 20.766 11.7826 20.766Z" fill="#C7C7C7"/>
<path d="M14.2365 25.6401C13.6953 25.056 13.0343 24.2695 12.3541 23.2854C12.2174 23.3396 12.0694 23.3701 11.9146 23.3747C11.7688 23.9554 11.648 24.4797 11.5508 24.9294C12.4163 25.291 13.3202 25.5271 14.2365 25.6401Z" fill="#C7C7C7"/>
<path d="M22.6142 15.9151C22.1758 15.3931 21.6605 14.8621 21.0572 14.3548C20.0098 13.4723 18.8302 12.7706 17.5319 12.2498C17.2958 12.5899 16.9026 12.8136 16.4562 12.8136C16.3297 12.8136 16.2088 12.7944 16.0924 12.7616C15.0529 14.4689 14.2315 16.3004 13.6044 17.949C13.2089 18.9885 12.8688 20.011 12.5796 20.968C12.8474 21.1398 13.0485 21.4053 13.1355 21.7194C16.0043 21.5883 18.5974 20.6697 20.8911 18.9636C21.4233 18.5681 21.9023 18.1523 22.3351 17.7365C22.178 17.5207 22.0831 17.2552 22.0831 16.9671C22.0831 16.5366 22.2922 16.1558 22.6142 15.9163V15.9151Z" fill="#C7C7C7"/>
<path d="M17.5024 10.7209C17.6561 10.9254 17.751 11.1763 17.7623 11.4497C19.1849 12.0147 20.4764 12.7841 21.6209 13.7547C22.3565 14.3784 22.9678 15.0303 23.4728 15.6608C23.6728 15.6733 23.8615 15.7286 24.0265 15.8213C24.9744 14.5603 25.414 13.592 25.4219 13.575L25.5484 13.6315C25.1744 11.6226 24.1948 9.70628 22.613 8.1764C22.2763 7.85099 21.9237 7.55383 21.5577 7.28491C19.995 8.03968 18.6493 9.27014 17.5036 10.7221L17.5024 10.7209Z" fill="#C7C7C7"/>
<path d="M11.018 21.0831C9.97735 19.1216 9.25422 17.037 8.86779 14.88C8.71639 14.0348 8.6181 13.1773 8.56951 12.3106C8.19778 12.1468 7.91642 11.8157 7.82264 11.4124C7.22379 11.5016 6.61479 11.6112 5.99561 11.7434C4.82051 14.7049 5.08943 18.0991 6.78653 20.8549C8.11642 21.2492 9.4011 21.5114 10.6417 21.6402C10.7174 21.4221 10.8485 21.2311 11.018 21.0831Z" fill="#C7C7C7"/>
<path d="M24.8139 19.684C24.8094 19.6705 24.6049 19.0129 24.0897 18.0706C23.8874 18.1982 23.649 18.2739 23.3914 18.2739C23.2615 18.2739 23.136 18.2547 23.0174 18.2186C22.5338 18.692 21.9892 19.1666 21.3802 19.6208C19.4266 21.0749 17.2188 21.9981 14.8177 22.3642C14.255 22.45 13.6822 22.5054 13.098 22.5303C13.0687 22.6093 13.0314 22.685 12.9873 22.7562C13.9511 24.1584 14.8855 25.1573 15.4618 25.7188C18.143 25.7267 20.8243 24.6884 22.8377 22.6139C23.6919 21.7337 24.3552 20.7394 24.8298 19.6818L24.8128 19.6863L24.8139 19.684Z" fill="#DEDEDE"/>
<path d="M24.5923 16.4429C24.6623 16.6033 24.7019 16.7796 24.7019 16.966C24.7019 17.105 24.6804 17.2372 24.6398 17.3626C24.9053 17.8191 25.1064 18.2281 25.2555 18.5603C25.6363 17.3411 25.7832 16.0666 25.6973 14.8057C25.4408 15.2441 25.0759 15.8124 24.5923 16.4429Z" fill="#C7C7C7"/>
<path d="M9.39664 9.84092C9.70623 9.91436 9.97178 10.0963 10.1526 10.3448C10.5661 10.3223 10.9751 10.311 11.3762 10.311C12.7683 10.311 14.088 10.4443 15.3286 10.7132C15.3534 10.7188 15.3783 10.7256 15.4032 10.7301C15.6416 10.407 16.0235 10.1968 16.4551 10.1968C16.5816 10.1968 16.7048 10.216 16.82 10.2499C18.0381 8.70085 19.3623 7.53367 20.7769 6.76421C17.3658 4.70667 13.0225 4.82305 9.72319 7.08397C9.55145 8.03647 9.44522 8.95734 9.39551 9.84205L9.39664 9.84092Z" fill="#C7C7C7"/>
<path d="M7.90668 10.5676C8.04 10.2783 8.27503 10.0456 8.56654 9.91676C8.6027 9.223 8.67274 8.5236 8.7733 7.8208C8.56201 8.0061 8.35637 8.20045 8.15751 8.40496C7.44454 9.13939 6.86492 9.95404 6.41748 10.8184C6.92141 10.7201 7.41743 10.6365 7.90781 10.5665L7.90668 10.5676Z" fill="#C7C7C7"/>
<path d="M11.1271 23.1417C10.8909 22.9768 10.7124 22.7372 10.6254 22.4559C9.61867 22.3565 8.58593 22.1746 7.53174 21.9102C7.79274 22.2333 8.07635 22.5452 8.38368 22.8423C9.11586 23.5508 9.92826 24.1281 10.7892 24.5745C10.883 24.1507 10.996 23.6694 11.1282 23.1417H11.1271Z" fill="#D0D0D0"/>
<path d="M39.6382 0.949219H42.8307V1.79081H40.5609V3.43986H42.6515V4.22385H40.5609V6.74756H39.6382V0.949219Z" fill="black"/>
<path d="M47.5516 0.949219L49.8215 6.74756H48.8252L48.3761 5.56357H45.7788L45.3298 6.74756H44.3335L46.5959 0.949219H47.5516ZM48.0583 4.70598L47.078 2.1172L46.0977 4.70598H48.0572H48.0583Z" fill="black"/>
<path d="M51.457 3.84791C51.457 2.05913 52.8042 0.867676 54.4298 0.867676C55.1807 0.867676 56.1204 1.12047 56.7327 2.06766L56.0629 2.54126C55.6383 1.95353 55.0175 1.74873 54.4543 1.74873C53.3194 1.74873 52.4042 2.57326 52.4042 3.84791C52.4042 5.12256 53.3269 5.94709 54.4618 5.94709C55.0335 5.94709 55.6373 5.74336 56.0629 5.15456L56.7327 5.62816C56.1204 6.57535 55.1807 6.82815 54.4298 6.82815C52.8042 6.82815 51.457 5.63563 51.457 3.84791Z" fill="black"/>
<path d="M59.0991 4.62385V0.949219H60.0218V4.62385C60.0218 5.59557 60.6095 5.95503 61.2303 5.95503C61.8511 5.95503 62.4473 5.59557 62.4473 4.62385V0.949219H63.37V4.62385C63.37 6.05316 62.4314 6.82862 61.2303 6.82862C60.0292 6.82862 59.0991 6.05316 59.0991 4.62385Z" fill="black"/>
<path d="M65.9019 0.949219H66.8245V5.88996H69.217V6.74756H65.9019V0.949219Z" fill="black"/>
<path d="M71.5781 0.949219H73.5056C75.1546 0.949219 76.3311 2.13321 76.3311 3.84839C76.3311 5.56357 75.1557 6.74756 73.5056 6.74756H71.5781V0.949219ZM73.4725 5.8729C74.7056 5.8729 75.3754 5.05584 75.3754 3.84732C75.3754 2.6388 74.7056 1.82174 73.4725 1.82174H72.5008V5.87183H73.4725V5.8729Z" fill="black"/>
<path d="M81.0511 0.949219L83.3209 6.74756H82.3247L81.8756 5.56357H79.2783L78.8293 6.74756H77.833L80.0954 0.949219H81.0511ZM81.5578 4.70598L80.5775 2.1172L79.5973 4.70598H81.5567H81.5578Z" fill="black"/>
<path d="M85.5269 0.949219H87.4543C89.1033 0.949219 90.2799 2.13321 90.2799 3.84839C90.2799 5.56357 89.1044 6.74756 87.4543 6.74756H85.5269V0.949219ZM87.4212 5.8729C88.6543 5.8729 89.3241 5.05584 89.3241 3.84732C89.3241 2.6388 88.6543 1.82174 87.4212 1.82174H86.4495V5.87183H87.4212V5.8729Z" fill="black"/>
<path d="M92.6411 0.949219H95.8421V1.80681H93.5638V3.41533H95.4912V4.24838H93.5638V5.88996H95.9157V6.74756H92.6411V0.949219Z" fill="black"/>
<path d="M59.0434 13.6482C56.9475 13.8636 56.7587 14.0247 56.7587 16.2551V26.5494C56.7587 28.7798 56.9741 28.9419 59.0434 29.1296V30.1237H50.7384V29.1296C52.8622 28.8608 53.0232 28.7798 53.0232 26.5494V21.4966H45.7668V26.5494C45.7668 28.7798 46.0089 28.9142 48.0249 29.1296V30.1237H39.7466V29.1296C41.7359 28.9142 42.0314 28.7798 42.0314 26.5494V16.2551C42.0314 14.0247 41.7892 13.8092 39.7466 13.6482V12.6541H48.0249V13.6482C45.9822 13.8359 45.7668 14.0247 45.7668 16.2551V20.0982H53.0232V16.2551C53.0232 14.0247 52.7544 13.8626 50.7384 13.6482V12.6541H59.0434V13.6482Z" fill="black"/>
<path d="M79.4433 13.6481C77.7228 13.8091 77.2662 14.3201 77.1585 15.2875C77.0774 16.0939 77.0241 17.008 77.0241 18.8896V22.4107C77.0241 24.7221 76.6476 27.0602 75.1158 28.673C73.8796 29.9626 71.9714 30.5279 70.0631 30.5279C68.2893 30.5279 66.5154 30.1514 65.2525 29.1306C63.693 27.9477 62.941 26.3082 62.941 23.2981V16.4982C62.941 14.0257 62.6989 13.8369 60.6562 13.6491V12.655H68.9612V13.6491C66.9453 13.8369 66.7031 14.0257 66.7031 16.4982V23.648C66.7031 26.6581 68.1815 28.6474 71.0572 28.6474C74.2561 28.6474 75.6534 26.2826 75.6534 22.2507V18.8907C75.6534 17.0358 75.5724 16.0683 75.519 15.2619C75.4113 14.0257 74.6593 13.7569 72.7777 13.6491V12.655H79.4433V13.6491V13.6481Z" fill="black"/>
<path d="M91.1901 20.5014C94.0125 21.0124 96.0007 22.3564 96.0007 24.9089C96.0007 26.575 94.9522 28.1344 93.4205 28.9941C92.0499 29.7461 90.3027 30.1227 88.3133 30.1227H80.7881V29.1285C82.8574 28.9131 83.0729 28.7787 83.0729 26.5216V16.2817C83.0729 14.0236 82.723 13.7826 80.8148 13.6482V12.6541H88.9853C91.028 12.6541 92.3187 12.9228 93.3928 13.5948C94.3869 14.2402 95.0322 15.261 95.0322 16.5783C95.0322 18.8087 92.9362 20.1526 91.189 20.5025L91.1901 20.5014ZM87.7768 20.1516C90.3304 20.1516 91.2712 19.0497 91.2712 17.0604C91.2712 14.7223 89.7395 13.8348 88.2611 13.8348C87.6158 13.8348 87.2126 13.9159 86.9982 14.0503C86.7027 14.238 86.7294 14.4802 86.7294 15.0444V20.1516H87.7779H87.7768ZM86.7283 26.4672C86.7283 28.4022 87.6158 28.9942 89.0664 28.9664C90.5448 28.9398 91.9965 27.6491 91.9965 25.1499C91.9965 22.6507 90.6792 21.3068 87.6691 21.3068H86.7283V26.4672Z" fill="black"/>
</svg>
